<svg xmlns="http://www.w3.org/2000/svg">
<!-- Icons: Lucide (lucide.dev), ISC licence. Discord mark: Simple Icons, CC0. -->
<symbol id="play" viewBox="0 0 24 24"><g fill="none" stroke="currentColor" stroke-width="2" stroke-linecap="round" stroke-linejoin="round"><polygon points="6 3 20 12 6 21 6 3" /></g></symbol>
<symbol id="pause" viewBox="0 0 24 24"><g fill="none" stroke="currentColor" stroke-width="2" stroke-linecap="round" stroke-linejoin="round"><rect x="14" y="4" width="4" height="16" rx="1" /><rect x="6" y="4" width="4" height="16" rx="1" /></g></symbol>
<symbol id="skip-back" viewBox="0 0 24 24"><g fill="none" stroke="currentColor" stroke-width="2" stroke-linecap="round" stroke-linejoin="round"><polygon points="19 20 9 12 19 4 19 20" /><line x1="5" x2="5" y1="19" y2="5" /></g></symbol>
<symbol id="skip-forward" viewBox="0 0 24 24"><g fill="none" stroke="currentColor" stroke-width="2" stroke-linecap="round" stroke-linejoin="round"><polygon points="5 4 15 12 5 20 5 4" /><line x1="19" x2="19" y1="5" y2="19" /></g></symbol>
<symbol id="shuffle" viewBox="0 0 24 24"><g fill="none" stroke="currentColor" stroke-width="2" stroke-linecap="round" stroke-linejoin="round"><path d="M2 18h1.4c1.3 0 2.5-.6 3.3-1.7l6.1-8.6c.7-1.1 2-1.7 3.3-1.7H22" /><path d="m18 2 4 4-4 4" /><path d="M2 6h1.9c1.5 0 2.9.9 3.6 2.2" /><path d="M22 18h-5.9c-1.3 0-2.6-.7-3.3-1.8l-.5-.8" /><path d="m18 14 4 4-4 4" /></g></symbol>
<symbol id="repeat" viewBox="0 0 24 24"><g fill="none" stroke="currentColor" stroke-width="2" stroke-linecap="round" stroke-linejoin="round"><path d="m17 2 4 4-4 4" /><path d="M3 11v-1a4 4 0 0 1 4-4h14" /><path d="m7 22-4-4 4-4" /><path d="M21 13v1a4 4 0 0 1-4 4H3" /></g></symbol>
<symbol id="heart" viewBox="0 0 24 24"><g fill="none" stroke="currentColor" stroke-width="2" stroke-linecap="round" stroke-linejoin="round"><path d="M19 14c1.49-1.46 3-3.21 3-5.5A5.5 5.5 0 0 0 16.5 3c-1.76 0-3 .5-4.5 2-1.5-1.5-2.74-2-4.5-2A5.5 5.5 0 0 0 2 8.5c0 2.3 1.5 4.05 3 5.5l7 7Z" /></g></symbol>
<symbol id="sparkles" viewBox="0 0 24 24"><g fill="none" stroke="currentColor" stroke-width="2" stroke-linecap="round" stroke-linejoin="round"><path d="M9.937 15.5A2 2 0 0 0 8.5 14.063l-6.135-1.582a.5.5 0 0 1 0-.962L8.5 9.936A2 2 0 0 0 9.937 8.5l1.582-6.135a.5.5 0 0 1 .963 0L14.063 8.5A2 2 0 0 0 15.5 9.937l6.135 1.581a.5.5 0 0 1 0 .964L15.5 14.063a2 2 0 0 0-1.437 1.437l-1.582 6.135a.5.5 0 0 1-.963 0z" /><path d="M20 3v4" /><path d="M22 5h-4" /><path d="M4 17v2" /><path d="M5 18H3" /></g></symbol>
<symbol id="cast" viewBox="0 0 24 24"><g fill="none" stroke="currentColor" stroke-width="2" stroke-linecap="round" stroke-linejoin="round"><path d="M2 8V6a2 2 0 0 1 2-2h16a2 2 0 0 1 2 2v12a2 2 0 0 1-2 2h-6" /><path d="M2 12a9 9 0 0 1 8 8" /><path d="M2 16a5 5 0 0 1 4 4" /><line x1="2" x2="2.01" y1="20" y2="20" /></g></symbol>
<symbol id="download" viewBox="0 0 24 24"><g fill="none" stroke="currentColor" stroke-width="2" stroke-linecap="round" stroke-linejoin="round"><path d="M21 15v4a2 2 0 0 1-2 2H5a2 2 0 0 1-2-2v-4" /><polyline points="7 10 12 15 17 10" /><line x1="12" x2="12" y1="15" y2="3" /></g></symbol>
<symbol id="refresh-cw" viewBox="0 0 24 24"><g fill="none" stroke="currentColor" stroke-width="2" stroke-linecap="round" stroke-linejoin="round"><path d="M3 12a9 9 0 0 1 9-9 9.75 9.75 0 0 1 6.74 2.74L21 8" /><path d="M21 3v5h-5" /><path d="M21 12a9 9 0 0 1-9 9 9.75 9.75 0 0 1-6.74-2.74L3 16" /><path d="M8 16H3v5" /></g></symbol>
<symbol id="server" viewBox="0 0 24 24"><g fill="none" stroke="currentColor" stroke-width="2" stroke-linecap="round" stroke-linejoin="round"><rect width="20" height="8" x="2" y="2" rx="2" ry="2" /><rect width="20" height="8" x="2" y="14" rx="2" ry="2" /><line x1="6" x2="6.01" y1="6" y2="6" /><line x1="6" x2="6.01" y1="18" y2="18" /></g></symbol>
<symbol id="palette" viewBox="0 0 24 24"><g fill="none" stroke="currentColor" stroke-width="2" stroke-linecap="round" stroke-linejoin="round"><circle cx="13.5" cy="6.5" r=".5" fill="currentColor" /><circle cx="17.5" cy="10.5" r=".5" fill="currentColor" /><circle cx="8.5" cy="7.5" r=".5" fill="currentColor" /><circle cx="6.5" cy="12.5" r=".5" fill="currentColor" /><path d="M12 2C6.5 2 2 6.5 2 12s4.5 10 10 10c.926 0 1.648-.746 1.648-1.688 0-.437-.18-.835-.437-1.125-.29-.289-.438-.652-.438-1.125a1.64 1.64 0 0 1 1.668-1.668h1.996c3.051 0 5.555-2.503 5.555-5.554C21.965 6.012 17.461 2 12 2z" /></g></symbol>
<symbol id="keyboard" viewBox="0 0 24 24"><g fill="none" stroke="currentColor" stroke-width="2" stroke-linecap="round" stroke-linejoin="round"><path d="M10 8h.01" /><path d="M12 12h.01" /><path d="M14 8h.01" /><path d="M16 12h.01" /><path d="M18 8h.01" /><path d="M6 8h.01" /><path d="M7 16h10" /><path d="M8 12h.01" /><rect width="20" height="16" x="2" y="4" rx="2" /></g></symbol>
<symbol id="radio" viewBox="0 0 24 24"><g fill="none" stroke="currentColor" stroke-width="2" stroke-linecap="round" stroke-linejoin="round"><path d="M4.9 19.1C1 15.2 1 8.8 4.9 4.9" /><path d="M7.8 16.2c-2.3-2.3-2.3-6.1 0-8.5" /><circle cx="12" cy="12" r="2" /><path d="M16.2 7.8c2.3 2.3 2.3 6.1 0 8.5" /><path d="M19.1 4.9C23 8.8 23 15.1 19.1 19" /></g></symbol>
<symbol id="mic-vocal" viewBox="0 0 24 24"><g fill="none" stroke="currentColor" stroke-width="2" stroke-linecap="round" stroke-linejoin="round"><path d="m11 7.601-5.994 8.19a1 1 0 0 0 .1 1.298l.817.818a1 1 0 0 0 1.314.087L15.09 12" /><path d="M16.5 21.174C15.5 20.5 14.372 20 13 20c-2.058 0-3.928 2.356-6 2-2.072-.356-2.775-3.369-1.5-4.5" /><circle cx="16" cy="7" r="5" /></g></symbol>
<symbol id="audio-lines" viewBox="0 0 24 24"><g fill="none" stroke="currentColor" stroke-width="2" stroke-linecap="round" stroke-linejoin="round"><path d="M2 10v3" /><path d="M6 6v11" /><path d="M10 3v18" /><path d="M14 8v7" /><path d="M18 5v13" /><path d="M22 10v3" /></g></symbol>
<symbol id="github" viewBox="0 0 24 24"><g fill="none" stroke="currentColor" stroke-width="2" stroke-linecap="round" stroke-linejoin="round"><path d="M15 22v-4a4.8 4.8 0 0 0-1-3.5c3 0 6-2 6-5.5.08-1.25-.27-2.48-1-3.5.28-1.15.28-2.35 0-3.5 0 0-1 0-3 1.5-2.64-.5-5.36-.5-8 0C6 2 5 2 5 2c-.3 1.15-.3 2.35 0 3.5A5.403 5.403 0 0 0 4 9c0 3.5 3 5.5 6 5.5-.39.49-.68 1.05-.85 1.65-.17.6-.22 1.23-.15 1.85v4" /><path d="M9 18c-4.51 2-5-2-7-2" /></g></symbol>
<symbol id="smartphone" viewBox="0 0 24 24"><g fill="none" stroke="currentColor" stroke-width="2" stroke-linecap="round" stroke-linejoin="round"><rect width="14" height="20" x="5" y="2" rx="2" ry="2" /><path d="M12 18h.01" /></g></symbol>
<symbol id="monitor" viewBox="0 0 24 24"><g fill="none" stroke="currentColor" stroke-width="2" stroke-linecap="round" stroke-linejoin="round"><rect width="20" height="14" x="2" y="3" rx="2" /><line x1="8" x2="16" y1="21" y2="21" /><line x1="12" x2="12" y1="17" y2="21" /></g></symbol>
<symbol id="container" viewBox="0 0 24 24"><g fill="none" stroke="currentColor" stroke-width="2" stroke-linecap="round" stroke-linejoin="round"><path d="M22 7.7c0-.6-.4-1.2-.8-1.5l-6.3-3.9a1.72 1.72 0 0 0-1.7 0l-10.3 6c-.5.2-.9.8-.9 1.4v6.6c0 .5.4 1.2.8 1.5l6.3 3.9a1.72 1.72 0 0 0 1.7 0l10.3-6c.5-.3.9-1 .9-1.5Z" /><path d="M10 21.9V14L2.1 9.1" /><path d="m10 14 11.9-6.9" /><path d="M14 19.8v-8.1" /><path d="M18 17.5V9.4" /></g></symbol>
<symbol id="shield-check" viewBox="0 0 24 24"><g fill="none" stroke="currentColor" stroke-width="2" stroke-linecap="round" stroke-linejoin="round"><path d="M20 13c0 5-3.5 7.5-7.66 8.95a1 1 0 0 1-.67-.01C7.5 20.5 4 18 4 13V6a1 1 0 0 1 1-1c2 0 4.5-1.2 6.24-2.72a1.17 1.17 0 0 1 1.52 0C14.51 3.81 17 5 19 5a1 1 0 0 1 1 1z" /><path d="m9 12 2 2 4-4" /></g></symbol>
<symbol id="house" viewBox="0 0 24 24"><g fill="none" stroke="currentColor" stroke-width="2" stroke-linecap="round" stroke-linejoin="round"><path d="M15 21v-8a1 1 0 0 0-1-1h-4a1 1 0 0 0-1 1v8" /><path d="M3 10a2 2 0 0 1 .709-1.528l7-5.999a2 2 0 0 1 2.582 0l7 5.999A2 2 0 0 1 21 10v9a2 2 0 0 1-2 2H5a2 2 0 0 1-2-2z" /></g></symbol>
<symbol id="music" viewBox="0 0 24 24"><g fill="none" stroke="currentColor" stroke-width="2" stroke-linecap="round" stroke-linejoin="round"><path d="M9 18V5l12-2v13" /><circle cx="6" cy="18" r="3" /><circle cx="18" cy="16" r="3" /></g></symbol>
<symbol id="list-music" viewBox="0 0 24 24"><g fill="none" stroke="currentColor" stroke-width="2" stroke-linecap="round" stroke-linejoin="round"><path d="M21 15V6" /><path d="M18.5 18a2.5 2.5 0 1 0 0-5 2.5 2.5 0 0 0 0 5Z" /><path d="M12 12H3" /><path d="M16 6H3" /><path d="M12 18H3" /></g></symbol>
<symbol id="chart-no-axes-column" viewBox="0 0 24 24"><g fill="none" stroke="currentColor" stroke-width="2" stroke-linecap="round" stroke-linejoin="round"><line x1="18" x2="18" y1="20" y2="10" /><line x1="12" x2="12" y1="20" y2="4" /><line x1="6" x2="6" y1="20" y2="14" /></g></symbol>
<symbol id="arrow-right" viewBox="0 0 24 24"><g fill="none" stroke="currentColor" stroke-width="2" stroke-linecap="round" stroke-linejoin="round"><path d="M5 12h14" /><path d="m12 5 7 7-7 7" /></g></symbol>
<symbol id="arrow-up-right" viewBox="0 0 24 24"><g fill="none" stroke="currentColor" stroke-width="2" stroke-linecap="round" stroke-linejoin="round"><path d="M7 7h10v10" /><path d="M7 17 17 7" /></g></symbol>
<symbol id="check" viewBox="0 0 24 24"><g fill="none" stroke="currentColor" stroke-width="2" stroke-linecap="round" stroke-linejoin="round"><path d="M20 6 9 17l-5-5" /></g></symbol>
<symbol id="timer" viewBox="0 0 24 24"><g fill="none" stroke="currentColor" stroke-width="2" stroke-linecap="round" stroke-linejoin="round"><line x1="10" x2="14" y1="2" y2="2" /><line x1="12" x2="15" y1="14" y2="11" /><circle cx="12" cy="14" r="8" /></g></symbol>
<symbol id="grip-vertical" viewBox="0 0 24 24"><g fill="none" stroke="currentColor" stroke-width="2" stroke-linecap="round" stroke-linejoin="round"><circle cx="9" cy="12" r="1" /><circle cx="9" cy="5" r="1" /><circle cx="9" cy="19" r="1" /><circle cx="15" cy="12" r="1" /><circle cx="15" cy="5" r="1" /><circle cx="15" cy="19" r="1" /></g></symbol>
<symbol id="code" viewBox="0 0 24 24"><g fill="none" stroke="currentColor" stroke-width="2" stroke-linecap="round" stroke-linejoin="round"><polyline points="16 18 22 12 16 6" /><polyline points="8 6 2 12 8 18" /></g></symbol>
<symbol id="file-json" viewBox="0 0 24 24"><g fill="none" stroke="currentColor" stroke-width="2" stroke-linecap="round" stroke-linejoin="round"><path d="M15 2H6a2 2 0 0 0-2 2v16a2 2 0 0 0 2 2h12a2 2 0 0 0 2-2V7Z" /><path d="M14 2v4a2 2 0 0 0 2 2h4" /><path d="M10 12a1 1 0 0 0-1 1v1a1 1 0 0 1-1 1 1 1 0 0 1 1 1v1a1 1 0 0 0 1 1" /><path d="M14 18a1 1 0 0 0 1-1v-1a1 1 0 0 1 1-1 1 1 0 0 1-1-1v-1a1 1 0 0 0-1-1" /></g></symbol>
<symbol id="sliders-vertical" viewBox="0 0 24 24"><g fill="none" stroke="currentColor" stroke-width="2" stroke-linecap="round" stroke-linejoin="round"><line x1="4" x2="4" y1="21" y2="14" /><line x1="4" x2="4" y1="10" y2="3" /><line x1="12" x2="12" y1="21" y2="12" /><line x1="12" x2="12" y1="8" y2="3" /><line x1="20" x2="20" y1="21" y2="16" /><line x1="20" x2="20" y1="12" y2="3" /><line x1="2" x2="6" y1="14" y2="14" /><line x1="10" x2="14" y1="8" y2="8" /><line x1="18" x2="22" y1="16" y2="16" /></g></symbol>
<symbol id="volume-2" viewBox="0 0 24 24"><g fill="none" stroke="currentColor" stroke-width="2" stroke-linecap="round" stroke-linejoin="round"><path d="M11 4.702a.705.705 0 0 0-1.203-.498L6.413 7.587A1.4 1.4 0 0 1 5.416 8H3a1 1 0 0 0-1 1v6a1 1 0 0 0 1 1h2.416a1.4 1.4 0 0 1 .997.413l3.383 3.384A.705.705 0 0 0 11 19.298z" /><path d="M16 9a5 5 0 0 1 0 6" /><path d="M19.364 18.364a9 9 0 0 0 0-12.728" /></g></symbol>
<symbol id="car" viewBox="0 0 24 24"><g fill="none" stroke="currentColor" stroke-width="2" stroke-linecap="round" stroke-linejoin="round"><path d="M19 17h2c.6 0 1-.4 1-1v-3c0-.9-.7-1.7-1.5-1.9C18.7 10.6 16 10 16 10s-1.3-1.4-2.2-2.3c-.5-.4-1.1-.7-1.8-.7H5c-.6 0-1.1.4-1.4.9l-1.4 2.9A3.7 3.7 0 0 0 2 12v4c0 .6.4 1 1 1h2" /><circle cx="7" cy="17" r="2" /><path d="M9 17h6" /><circle cx="17" cy="17" r="2" /></g></symbol>
<symbol id="bell" viewBox="0 0 24 24"><g fill="none" stroke="currentColor" stroke-width="2" stroke-linecap="round" stroke-linejoin="round"><path d="M6 8a6 6 0 0 1 12 0c0 7 3 9 3 9H3s3-2 3-9" /><path d="M10.3 21a1.94 1.94 0 0 0 3.4 0" /></g></symbol>
<symbol id="lock" viewBox="0 0 24 24"><g fill="none" stroke="currentColor" stroke-width="2" stroke-linecap="round" stroke-linejoin="round"><rect width="18" height="11" x="3" y="11" rx="2" ry="2" /><path d="M7 11V7a5 5 0 0 1 10 0v4" /></g></symbol>
<symbol id="bluetooth" viewBox="0 0 24 24"><g fill="none" stroke="currentColor" stroke-width="2" stroke-linecap="round" stroke-linejoin="round"><path d="m7 7 10 10-5 5V2l5 5L7 17" /></g></symbol>
<symbol id="folder-down" viewBox="0 0 24 24"><g fill="none" stroke="currentColor" stroke-width="2" stroke-linecap="round" stroke-linejoin="round"><path d="M20 20a2 2 0 0 0 2-2V8a2 2 0 0 0-2-2h-7.9a2 2 0 0 1-1.69-.9L9.6 3.9A2 2 0 0 0 7.93 3H4a2 2 0 0 0-2 2v13a2 2 0 0 0 2 2Z" /><path d="M12 10v6" /><path d="m15 13-3 3-3-3" /></g></symbol>
<symbol id="layers" viewBox="0 0 24 24"><g fill="none" stroke="currentColor" stroke-width="2" stroke-linecap="round" stroke-linejoin="round"><path d="m12.83 2.18a2 2 0 0 0-1.66 0L2.6 6.08a1 1 0 0 0 0 1.83l8.58 3.91a2 2 0 0 0 1.66 0l8.58-3.9a1 1 0 0 0 0-1.83Z" /><path d="m22 17.65-9.17 4.16a2 2 0 0 1-1.66 0L2 17.65" /><path d="m22 12.65-9.17 4.16a2 2 0 0 1-1.66 0L2 12.65" /></g></symbol>
<symbol id="mouse-pointer-click" viewBox="0 0 24 24"><g fill="none" stroke="currentColor" stroke-width="2" stroke-linecap="round" stroke-linejoin="round"><path d="M14 4.1 12 6" /><path d="m5.1 8-2.9-.8" /><path d="m6 12-1.9 2" /><path d="M7.2 2.2 8 5.1" /><path d="M9.037 9.69a.498.498 0 0 1 .653-.653l11 4.5a.5.5 0 0 1-.074.949l-4.349 1.041a1 1 0 0 0-.74.739l-1.04 4.35a.5.5 0 0 1-.95.074z" /></g></symbol>
<symbol id="list-plus" viewBox="0 0 24 24"><g fill="none" stroke="currentColor" stroke-width="2" stroke-linecap="round" stroke-linejoin="round"><path d="M11 12H3" /><path d="M16 6H3" /><path d="M16 18H3" /><path d="M18 9v6" /><path d="M21 12h-6" /></g></symbol>
<symbol id="star" viewBox="0 0 24 24"><g fill="none" stroke="currentColor" stroke-width="2" stroke-linecap="round" stroke-linejoin="round"><path d="M11.525 2.295a.53.53 0 0 1 .95 0l2.31 4.679a2.123 2.123 0 0 0 1.595 1.16l5.166.756a.53.53 0 0 1 .294.904l-3.736 3.638a2.123 2.123 0 0 0-.611 1.878l.882 5.14a.53.53 0 0 1-.771.56l-4.618-2.428a2.122 2.122 0 0 0-1.973 0L6.396 21.01a.53.53 0 0 1-.77-.56l.881-5.139a2.122 2.122 0 0 0-.611-1.879L2.16 9.795a.53.53 0 0 1 .294-.906l5.165-.755a2.122 2.122 0 0 0 1.597-1.16z" /></g></symbol>
<symbol id="blend" viewBox="0 0 24 24"><g fill="none" stroke="currentColor" stroke-width="2" stroke-linecap="round" stroke-linejoin="round"><circle cx="9" cy="9" r="7" /><circle cx="15" cy="15" r="7" /></g></symbol>
<symbol id="waves" viewBox="0 0 24 24"><g fill="none" stroke="currentColor" stroke-width="2" stroke-linecap="round" stroke-linejoin="round"><path d="M2 6c.6.5 1.2 1 2.5 1C7 7 7 5 9.5 5c2.6 0 2.4 2 5 2 2.5 0 2.5-2 5-2 1.3 0 1.9.5 2.5 1" /><path d="M2 12c.6.5 1.2 1 2.5 1 2.5 0 2.5-2 5-2 2.6 0 2.4 2 5 2 2.5 0 2.5-2 5-2 1.3 0 1.9.5 2.5 1" /><path d="M2 18c.6.5 1.2 1 2.5 1 2.5 0 2.5-2 5-2 2.6 0 2.4 2 5 2 2.5 0 2.5-2 5-2 1.3 0 1.9.5 2.5 1" /></g></symbol>
<symbol id="menu" viewBox="0 0 24 24"><g fill="none" stroke="currentColor" stroke-width="2" stroke-linecap="round" stroke-linejoin="round"><line x1="4" x2="20" y1="12" y2="12" /><line x1="4" x2="20" y1="6" y2="6" /><line x1="4" x2="20" y1="18" y2="18" /></g></symbol>
<symbol id="copy" viewBox="0 0 24 24"><g fill="none" stroke="currentColor" stroke-width="2" stroke-linecap="round" stroke-linejoin="round"><rect width="14" height="14" x="8" y="8" rx="2" ry="2" /><path d="M4 16c-1.1 0-2-.9-2-2V4c0-1.1.9-2 2-2h10c1.1 0 2 .9 2 2" /></g></symbol>
<symbol id="book-open" viewBox="0 0 24 24"><g fill="none" stroke="currentColor" stroke-width="2" stroke-linecap="round" stroke-linejoin="round"><path d="M12 7v14" /><path d="M3 18a1 1 0 0 1-1-1V4a1 1 0 0 1 1-1h5a4 4 0 0 1 4 4 4 4 0 0 1 4-4h5a1 1 0 0 1 1 1v13a1 1 0 0 1-1 1h-6a3 3 0 0 0-3 3 3 3 0 0 0-3-3z" /></g></symbol>
<symbol id="database" viewBox="0 0 24 24"><g fill="none" stroke="currentColor" stroke-width="2" stroke-linecap="round" stroke-linejoin="round"><ellipse cx="12" cy="5" rx="9" ry="3" /><path d="M3 5V19A9 3 0 0 0 21 19V5" /><path d="M3 12A9 3 0 0 0 21 12" /></g></symbol>
<symbol id="eye-off" viewBox="0 0 24 24"><g fill="none" stroke="currentColor" stroke-width="2" stroke-linecap="round" stroke-linejoin="round"><path d="M10.733 5.076a10.744 10.744 0 0 1 11.205 6.575 1 1 0 0 1 0 .696 10.747 10.747 0 0 1-1.444 2.49" /><path d="M14.084 14.158a3 3 0 0 1-4.242-4.242" /><path d="M17.479 17.499a10.75 10.75 0 0 1-15.417-5.151 1 1 0 0 1 0-.696 10.75 10.75 0 0 1 4.446-5.143" /><path d="m2 2 20 20" /></g></symbol>
<symbol id="layout-grid" viewBox="0 0 24 24"><g fill="none" stroke="currentColor" stroke-width="2" stroke-linecap="round" stroke-linejoin="round"><rect width="7" height="7" x="3" y="3" rx="1" /><rect width="7" height="7" x="14" y="3" rx="1" /><rect width="7" height="7" x="14" y="14" rx="1" /><rect width="7" height="7" x="3" y="14" rx="1" /></g></symbol>
<symbol id="folder" viewBox="0 0 24 24"><g fill="none" stroke="currentColor" stroke-width="2" stroke-linecap="round" stroke-linejoin="round"><path d="M20 20a2 2 0 0 0 2-2V8a2 2 0 0 0-2-2h-7.9a2 2 0 0 1-1.69-.9L9.6 3.9A2 2 0 0 0 7.93 3H4a2 2 0 0 0-2 2v13a2 2 0 0 0 2 2Z" /></g></symbol>
<symbol id="file-audio" viewBox="0 0 24 24"><g fill="none" stroke="currentColor" stroke-width="2" stroke-linecap="round" stroke-linejoin="round"><path d="M17.5 22h.5a2 2 0 0 0 2-2V7l-5-5H6a2 2 0 0 0-2 2v3" /><path d="M14 2v4a2 2 0 0 0 2 2h4" /><path d="M2 19a2 2 0 1 1 4 0v1a2 2 0 1 1-4 0v-4a6 6 0 0 1 12 0v4a2 2 0 1 1-4 0v-1a2 2 0 1 1 4 0" /></g></symbol>
<symbol id="key-round" viewBox="0 0 24 24"><g fill="none" stroke="currentColor" stroke-width="2" stroke-linecap="round" stroke-linejoin="round"><path d="M2.586 17.414A2 2 0 0 0 2 18.828V21a1 1 0 0 0 1 1h3a1 1 0 0 0 1-1v-1a1 1 0 0 1 1-1h1a1 1 0 0 0 1-1v-1a1 1 0 0 1 1-1h.172a2 2 0 0 0 1.414-.586l.814-.814a6.5 6.5 0 1 0-4-4z" /><circle cx="16.5" cy="7.5" r=".5" fill="currentColor" /></g></symbol>
<symbol id="infinity" viewBox="0 0 24 24"><g fill="none" stroke="currentColor" stroke-width="2" stroke-linecap="round" stroke-linejoin="round"><path d="M12 12c-2-2.67-4-4-6-4a4 4 0 1 0 0 8c2 0 4-1.33 6-4Zm0 0c2 2.67 4 4 6 4a4 4 0 0 0 0-8c-2 0-4 1.33-6 4Z" /></g></symbol>
<symbol id="activity" viewBox="0 0 24 24"><g fill="none" stroke="currentColor" stroke-width="2" stroke-linecap="round" stroke-linejoin="round"><path d="M22 12h-2.48a2 2 0 0 0-1.93 1.46l-2.35 8.36a.25.25 0 0 1-.48 0L9.24 2.18a.25.25 0 0 0-.48 0l-2.35 8.36A2 2 0 0 1 4.49 12H2" /></g></symbol>
<symbol id="discord" viewBox="0 0 24 24"><path fill="currentColor" d="M20.317 4.37a19.791 19.791 0 0 0-4.885-1.515.074.074 0 0 0-.079.037c-.21.375-.444.864-.608 1.25a18.27 18.27 0 0 0-5.487 0 12.64 12.64 0 0 0-.617-1.25.077.077 0 0 0-.079-.037A19.736 19.736 0 0 0 3.677 4.37a.07.07 0 0 0-.032.027C.533 9.046-.32 13.58.099 18.057a.082.082 0 0 0 .031.057 19.9 19.9 0 0 0 5.993 3.03.078.078 0 0 0 .084-.028c.462-.63.874-1.295 1.226-1.994a.076.076 0 0 0-.041-.106 13.107 13.107 0 0 1-1.872-.892.077.077 0 0 1-.008-.128 10.2 10.2 0 0 0 .372-.292.074.074 0 0 1 .077-.01c3.928 1.793 8.18 1.793 12.062 0a.074.074 0 0 1 .078.01c.12.098.246.198.373.292a.077.077 0 0 1-.006.127 12.299 12.299 0 0 1-1.873.892.077.077 0 0 0-.041.107c.36.698.772 1.362 1.225 1.993a.076.076 0 0 0 .084.028 19.839 19.839 0 0 0 6.002-3.03.077.077 0 0 0 .032-.054c.5-5.177-.838-9.674-3.549-13.66a.061.061 0 0 0-.031-.03zM8.02 15.33c-1.183 0-2.157-1.085-2.157-2.419 0-1.333.956-2.419 2.157-2.419 1.21 0 2.176 1.096 2.157 2.42 0 1.333-.956 2.418-2.157 2.418zm7.975 0c-1.183 0-2.157-1.085-2.157-2.419 0-1.333.955-2.419 2.157-2.419 1.21 0 2.176 1.096 2.157 2.42 0 1.333-.946 2.418-2.157 2.418z"/></symbol>
</svg>
